<?xml version="1.0" standalone="no"?>
<!DOCTYPE svg PUBLIC "-//W3C//DTD SVG 20010904//EN"
 "http://www.w3.org/TR/2001/REC-SVG-20010904/DTD/svg10.dtd">
<svg version="1.0" xmlns="http://www.w3.org/2000/svg"
 width="3000.000000pt" height="2000.000000pt" viewBox="0 0 3000.000000 2000.000000"
 preserveAspectRatio="xMidYMid meet">

<g transform="translate(0.000000,2000.000000) scale(0.100000,-0.100000)"
fill="#000000" stroke="none">
<path d="M4670 14497 c-125 -29 -190 -89 -198 -183 -4 -48 0 -64 32 -128 35
-71 71 -111 160 -180 21 -16 45 -44 53 -63 32 -77 -11 -139 -192 -274 -74 -55
-144 -113 -155 -129 -28 -39 -25 -76 9 -115 29 -33 51 -105 51 -164 0 -52 -33
-131 -72 -176 -48 -55 -121 -91 -221 -110 -132 -25 -198 -63 -241 -138 -47
-83 -40 -164 18 -202 42 -28 122 -16 193 28 51 31 188 77 230 77 55 0 -94 -74
-232 -115 -210 -63 -315 -118 -426 -222 -164 -155 -239 -345 -211 -530 9 -58
28 -111 71 -203 114 -241 181 -458 312 -1003 43 -183 95 -393 115 -467 96
-370 290 -850 533 -1325 279 -545 557 -964 1027 -1550 143 -179 365 -382 739
-676 213 -168 263 -202 500 -345 356 -214 610 -330 1001 -458 570 -187 956
-249 2044 -330 308 -23 357 -25 605 -16 390 14 670 40 1000 91 72 12 164 20
205 20 117 -2 237 24 460 98 113 38 236 74 274 81 92 17 224 8 302 -21 l61
-22 34 25 c90 68 177 97 397 133 189 31 259 48 334 82 55 25 57 27 69 78 6 28
10 83 7 120 -4 62 -7 70 -40 100 -56 51 -115 60 -343 48 -273 -14 -366 -2
-449 62 l-44 33 -38 -39 c-22 -22 -63 -52 -92 -66 -80 -39 -151 -35 -341 17
-151 42 -156 42 -255 35 -229 -18 -317 -6 -324 43 -4 29 23 71 122 187 86 101
139 197 134 241 -7 63 -151 96 -250 57 -93 -36 -184 -108 -370 -298 l-187
-189 -73 12 c-335 57 -812 200 -1148 344 -262 112 -662 349 -925 547 -249 188
-373 311 -672 666 -265 314 -353 428 -478 615 -192 289 -277 479 -415 930
-148 481 -209 901 -280 1945 -17 242 -35 496 -41 565 -6 68 -8 145 -5 170 25
183 116 251 287 215 41 -8 155 -42 253 -76 210 -71 307 -89 389 -70 31 7 66
20 77 29 l20 17 -25 54 c-52 110 -216 241 -406 323 -156 67 -516 200 -567 209
-87 15 -162 52 -310 148 -149 97 -203 122 -300 141 -62 13 -62 13 -62 47 0 81
-64 151 -165 182 -33 10 -121 29 -195 40 -227 37 -331 73 -392 138 -27 28 -27
29 -13 77 32 104 13 164 -60 192 -40 15 -68 16 -224 10 -211 -8 -267 1 -318
48 -49 45 -54 106 -18 211 47 137 23 240 -69 302 -77 52 -182 71 -276 50z
m165 -54 c40 -19 84 -80 92 -128 8 -51 -15 -59 -162 -50 -134 8 -165 0 -165
-38 0 -12 9 -37 20 -55 26 -42 25 -50 -1 -26 -87 79 -53 237 66 298 39 21 105
20 150 -1z m85 -642 c0 -15 -30 -41 -46 -41 -21 0 -17 15 9 33 26 18 37 21 37
8z m396 -35 c27 -20 9 -35 -63 -52 -67 -16 -102 -17 -122 -5 -18 12 -6 46 22
59 33 16 140 15 163 -2z m49 -292 c136 -41 225 -84 261 -126 34 -42 30 -48
-21 -29 -60 21 -70 10 -50 -55 28 -92 18 -120 -48 -131 -114 -18 -307 188
-307 328 0 51 6 62 29 54 9 -2 70 -21 136 -41z m-189 -195 c40 -31 64 -57 64
-70 0 -4 -84 -7 -187 -6 -177 2 -191 1 -234 -20 -25 -13 -63 -23 -84 -23 -35
0 -38 2 -24 15 26 27 350 133 410 135 9 0 34 -14 55 -31z m788 -124 c12 -12
13 -22 5 -45 -6 -16 -17 -34 -25 -41 -21 -18 -17 -29 36 -98 98 -129 58 -139
-67 -17 l-53 50 10 -34 c21 -74 6 -159 -36 -210 -21 -24 -34 -30 -65 -30 -49
0 -100 44 -167 143 -53 78 -92 108 -120 91 -23 -15 -27 -73 -8 -119 21 -50 21
-50 -22 -15 -70 56 -140 74 -287 74 -150 -1 -263 -22 -463 -86 -96 -30 -130
-37 -146 -30 -19 9 -17 12 25 31 67 30 655 191 699 191 10 0 90 21 177 47 377
111 475 130 507 98z m1133 -311 c85 -6 91 -8 107 -35 50 -84 21 -192 -80 -299
-76 -81 -165 -131 -280 -158 -43 -11 -131 -35 -194 -55 -224 -69 -601 -132
-880 -147 -114 -6 -188 -15 -240 -30 -41 -11 -190 -77 -330 -145 -241 -117
-360 -164 -458 -180 l-43 -7 17 41 c9 23 14 48 10 56 -7 19 -58 19 -159 0 -43
-8 -99 -15 -123 -15 l-44 0 0 -54 c0 -78 -22 -101 -92 -100 -178 5 -378 216
-285 301 27 25 81 53 102 53 8 0 15 4 15 9 0 15 -121 31 -162 22 -69 -16 -101
-43 -138 -116 l-35 -68 0 -164 c0 -104 -4 -162 -10 -160 -18 5 -93 125 -114
182 -42 113 -20 235 56 307 49 46 145 98 239 128 91 29 271 67 279 58 2 -2 0
-21 -6 -41 -20 -74 24 -153 111 -197 46 -23 175 -60 210 -60 37 1 110 37 110
55 0 8 -31 35 -70 60 -38 25 -70 49 -70 54 0 16 30 41 56 47 38 10 25 25 -57
69 -129 70 -110 86 165 140 211 41 318 70 706 187 353 106 534 151 780 192
363 62 678 86 907 70z m766 -326 c67 -29 99 -70 95 -122 -4 -53 -30 -60 -57
-15 -11 18 -50 51 -87 73 -76 46 -97 71 -74 86 18 12 59 5 123 -22z m-967
-337 c69 -42 101 -177 90 -381 -5 -104 -36 -292 -61 -375 -5 -18 -2 -21 21
-20 39 0 61 -49 75 -170 13 -122 -1 -393 -27 -500 -4 -17 0 -21 23 -20 25 0
29 -5 41 -50 18 -72 2 -225 -34 -318 -6 -15 -3 -17 20 -11 17 4 35 0 51 -10
32 -21 33 -68 4 -137 l-22 -50 -22 21 c-29 27 -42 25 -60 -9 -15 -31 -45 -183
-45 -233 0 -37 16 -28 25 15 14 67 109 185 139 174 16 -6 24 -33 49 -162 39
-201 70 -323 122 -495 31 -102 67 -231 80 -288 19 -81 30 -110 54 -138 43 -48
42 -53 -27 -97 -44 -28 -81 -89 -82 -132 0 -18 5 -20 38 -17 48 4 112 -37 165
-107 40 -52 77 -135 77 -172 0 -11 5 -17 10 -14 6 3 10 28 10 54 0 26 6 55 13
66 13 17 18 12 71 -58 31 -43 75 -91 98 -108 32 -23 69 -73 150 -205 160 -262
261 -396 391 -521 30 -29 67 -71 83 -94 27 -39 27 -42 10 -55 -24 -17 -17 -43
36 -124 154 -237 495 -447 914 -564 l111 -31 51 -61 c138 -166 305 -275 472
-306 54 -10 191 -5 239 8 l24 7 -21 -21 c-63 -63 5 -103 304 -181 311 -81 320
-89 161 -146 -98 -35 -166 -31 -327 19 -63 20 -147 41 -186 46 -53 7 -121 31
-280 98 -318 136 -447 171 -589 158 -70 -6 -129 -30 -264 -106 -29 -16 -58
-27 -63 -24 -9 6 21 52 80 117 18 22 31 41 29 44 -10 9 -53 -21 -127 -92 -132
-125 -166 -123 -256 11 -30 45 -68 91 -82 101 -34 22 -106 22 -148 0 -27 -14
-34 -14 -43 -3 -6 7 -40 28 -75 45 -81 40 -88 56 -42 97 l36 31 -41 6 c-52 7
-56 11 -35 39 35 48 76 112 76 119 0 4 -28 10 -62 13 -35 3 -121 10 -191 16
-218 19 -383 72 -441 141 -32 38 -66 102 -66 124 0 37 58 36 234 -3 l79 -18
-46 -18 c-66 -25 -77 -49 -38 -85 70 -66 277 -97 397 -60 l30 9 -105 113
c-154 163 -256 262 -320 311 -121 92 -370 219 -810 412 -293 130 -425 199
-466 243 -10 12 -15 24 -12 28 22 21 264 -74 357 -141 58 -42 153 -76 210 -76
127 0 115 171 -22 316 -76 80 -101 95 -184 110 -91 15 -135 40 -239 134 -44
40 -100 85 -124 101 l-45 29 41 0 c106 0 204 35 234 84 37 60 21 131 -49 225
-53 70 -245 266 -249 254 -2 -6 22 -67 53 -137 64 -144 77 -202 49 -212 -29
-11 -59 34 -94 138 -18 54 -44 109 -61 130 -30 36 -126 90 -181 102 -25 6 -26
4 -32 -53 -13 -123 -49 -144 -82 -48 -15 43 -23 56 -35 51 -8 -3 -39 -11 -67
-17 -47 -10 -56 -9 -80 9 -16 11 -41 46 -57 77 -24 49 -29 68 -27 128 3 119
-30 172 -198 315 -55 47 -106 99 -120 124 -13 23 -20 41 -15 38 5 -2 40 -19
77 -37 92 -45 184 -54 217 -21 34 34 24 103 -23 167 -20 26 -55 74 -77 105
-72 102 -102 110 -164 44 -69 -74 -136 -126 -161 -126 -49 0 -52 27 -29 320 5
74 5 75 -13 53 -10 -12 -30 -25 -46 -29 -51 -12 -55 -49 -31 -268 l7 -58 -44
8 c-24 4 -60 8 -79 9 -29 0 -36 -4 -38 -23 -3 -17 18 -43 94 -115 173 -163
280 -270 247 -248 -48 32 -77 27 -132 -24 -88 -82 -133 -56 -182 105 -38 128
-65 183 -115 234 -41 42 -124 86 -163 86 -21 0 -18 4 22 30 53 34 66 64 44
107 -20 37 -85 97 -164 151 -34 23 -64 46 -67 51 -3 4 4 17 15 27 12 11 51 54
87 98 92 110 135 123 201 63 23 -22 101 -131 101 -141 0 -4 -14 -6 -30 -6 -20
0 -40 -9 -57 -26 -23 -23 -25 -31 -21 -88 11 -127 115 -255 166 -204 19 19 16
343 -3 399 -31 88 -101 150 -221 195 l-65 24 -26 -20 c-17 -13 -34 -18 -47
-14 -83 25 -159 199 -109 249 12 13 26 15 53 11 l38 -6 4 55 c8 96 56 129 211
145 112 11 124 15 133 43 4 12 17 30 30 40 35 27 32 80 -8 153 -85 159 -98
190 -98 232 0 36 5 49 32 73 19 19 37 28 47 24 96 -37 241 -14 365 59 50 29
96 79 96 105 0 18 -23 44 -50 54 -8 4 42 4 111 0 103 -4 131 -3 156 10 29 15
63 69 63 99 0 8 2 17 5 20 3 3 76 -12 162 -33 158 -39 213 -47 213 -30 0 12
-49 49 -113 86 -57 33 -56 34 58 71 107 34 237 61 365 75 71 8 114 18 132 31
71 49 126 59 174 29z m-1666 -421 c0 -25 -27 -37 -43 -21 -9 10 -8 16 7 27 27
19 36 18 36 -6z m-1176 -69 c9 -14 -4 -40 -25 -51 -22 -12 -69 4 -69 23 0 26
81 50 94 28z m875 -223 c121 -23 129 -102 16 -161 -56 -29 -144 -29 -182 -1
-15 12 -28 30 -28 40 0 17 8 18 85 15 53 -1 81 1 75 7 -5 5 -48 24 -95 42
-113 44 -142 59 -135 70 7 11 187 3 264 -12z m-435 -118 c36 -13 33 -42 -9
-79 -41 -36 -51 -37 -85 -15 -54 36 -65 74 -27 92 28 14 88 15 121 2z m516
-140 c0 -22 -16 -35 -25 -20 -9 14 4 52 16 45 5 -4 9 -15 9 -25z m-335 10 c10
-16 -14 -40 -39 -40 -29 0 -61 24 -52 38 9 15 83 16 91 2z m-700 -57 c5 -17 2
-23 -10 -23 -19 0 -30 24 -21 47 8 19 21 9 31 -24z m565 -14 c18 -32 5 -51
-32 -47 -39 4 -46 20 -19 47 26 26 37 26 51 0z m-660 -64 c0 -14 -4 -25 -10
-25 -5 0 -10 11 -10 25 0 14 5 25 10 25 6 0 10 -11 10 -25z m618 -175 c47 -21
53 -42 16 -66 -18 -12 -28 -10 -91 20 -74 36 -89 49 -77 67 9 15 97 3 152 -21z
m-396 -150 c10 -14 25 -47 33 -73 13 -45 13 -47 -5 -47 -11 0 -35 14 -55 31
-28 25 -35 38 -35 68 0 59 27 68 62 21z m357 4 c21 -15 51 -69 51 -92 0 -18
-113 10 -142 36 -55 47 30 98 91 56z m-50 -149 c27 -13 47 -42 37 -52 -8 -8
-116 45 -116 56 0 16 46 13 79 -4z m211 -145 c0 -5 -7 -10 -15 -10 -8 0 -15 5
-15 10 0 6 7 10 15 10 8 0 15 -4 15 -10z m-393 -87 c93 -152 194 -436 164
-466 -12 -12 -68 38 -91 82 -10 20 -19 29 -20 20 0 -9 16 -39 35 -65 66 -94
95 -154 150 -315 54 -157 86 -228 140 -316 14 -24 22 -43 17 -43 -5 0 -40 33
-78 73 -101 106 -145 184 -274 497 -28 69 -76 171 -105 226 -77 147 -124 284
-97 284 28 0 122 -135 178 -254 18 -39 33 -69 33 -66 1 7 -54 184 -82 265 -54
157 -40 192 30 78z m598 -332 c8 -14 -32 -33 -55 -26 -37 12 -19 30 32 34 9 0
19 -3 23 -8z m134 -217 c7 -7 -20 -32 -48 -44 -23 -9 -36 -8 -66 4 -44 19 -42
38 6 47 32 7 99 2 108 -7z m461 -40 c15 -38 12 -46 -11 -42 -27 4 -44 30 -36
52 10 24 36 19 47 -10z m-150 -4 c0 -5 -4 -10 -10 -10 -5 0 -10 5 -10 10 0 6
5 10 10 10 6 0 10 -4 10 -10z m455 -1 c4 -6 5 -13 2 -16 -8 -7 -47 7 -47 18 0
13 37 11 45 -2z m-34 -274 c10 -16 29 -88 43 -160 31 -152 62 -225 110 -253
47 -28 146 -176 146 -218 0 -14 -8 -16 -47 -11 -33 3 -107 36 -247 108 -111
56 -243 120 -295 141 -114 46 -149 67 -131 78 9 5 2 22 -24 61 -45 67 -63 124
-44 146 20 24 104 10 194 -32 159 -74 228 -90 259 -58 24 23 13 77 -31 164
l-35 70 43 -3 c35 -2 45 -8 59 -33z m-1293 -72 c69 -90 155 -248 196 -363 56
-155 104 -231 277 -440 120 -145 163 -208 188 -279 14 -40 27 -57 62 -80 103
-69 159 -157 224 -352 26 -77 59 -156 76 -178 39 -54 95 -90 157 -100 60 -9
73 -22 134 -135 80 -148 168 -218 253 -202 l36 7 -20 -20 c-12 -12 -21 -26
-21 -31 0 -26 34 -72 87 -119 32 -29 73 -70 91 -93 25 -32 40 -42 69 -45 109
-11 323 -182 323 -259 0 -36 -40 -41 -129 -15 -142 41 -175 63 -327 215 -77
78 -172 163 -210 191 -213 153 -421 411 -634 785 -45 80 -130 215 -188 300
-401 586 -490 738 -621 1052 -66 158 -78 198 -63 198 6 0 23 -17 40 -37z m846
-352 c9 -14 -5 -41 -21 -41 -8 0 -24 5 -35 11 -21 11 -21 12 -3 25 22 16 51
18 59 5z m7 -292 c29 -21 65 -76 55 -86 -10 -10 -126 81 -126 99 0 15 42 8 71
-13z m1207 -6 c19 -16 42 -73 29 -73 -2 0 -24 7 -48 15 -62 22 -89 42 -83 60
8 21 77 19 102 -2z m-533 -47 c33 -7 120 -30 193 -52 100 -29 132 -42 130 -53
-2 -9 -37 -29 -78 -46 -105 -43 -106 -68 -5 -126 l50 -29 -77 0 c-43 0 -78 -4
-78 -9 0 -13 51 -54 119 -96 56 -35 59 -39 54 -70 -5 -30 1 -38 72 -108 81
-78 80 -76 61 -142 -4 -16 8 -31 54 -68 62 -50 80 -84 38 -72 -41 13 -181 86
-251 132 -38 24 -136 77 -217 118 -147 74 -220 124 -220 151 0 19 1 19 95 -26
92 -44 127 -52 104 -24 -8 9 -70 62 -139 117 -122 97 -124 99 -83 93 67 -12
63 8 -16 88 -96 97 -94 107 13 80 30 -7 34 8 14 51 -22 48 11 48 127 0 12 -5
6 3 -13 19 -37 32 -56 62 -47 76 8 13 27 12 100 -4z m-440 -126 c43 -21 103
-76 93 -86 -7 -6 -125 51 -150 74 -41 36 -7 43 57 12z m-261 -139 c34 -22 79
-77 74 -91 -4 -11 -118 87 -118 101 0 13 9 11 44 -10z m1616 -415 c0 -2 3 -11
6 -20 4 -11 0 -16 -14 -16 -21 0 -46 23 -35 33 7 8 43 10 43 3z m182 -113 c24
-22 23 -35 -4 -31 -15 2 -24 11 -26 26 -4 26 5 28 30 5z m-836 -104 c54 -14
64 -26 28 -35 -27 -7 -130 21 -140 38 -7 12 60 10 112 -3z m525 -53 c83 -36
149 -78 132 -83 -13 -5 -169 34 -198 49 -26 14 -65 49 -65 60 0 17 59 6 131
-26z m-583 -23 c2 -8 -5 -13 -17 -13 -21 0 -35 13 -24 24 10 10 36 3 41 -11z
m290 -9 c40 -16 41 -34 2 -34 -35 0 -110 35 -110 51 0 12 60 3 108 -17z m-48
-94 c46 -12 123 -36 170 -54 47 -19 115 -44 152 -56 80 -26 114 -50 105 -74
-12 -30 -77 -49 -184 -54 -117 -5 -205 8 -273 43 -25 13 -62 26 -82 30 -27 5
-52 23 -92 65 -58 60 -69 92 -38 109 28 17 152 12 242 -9z m552 -64 c43 -18
99 -49 125 -68 27 -19 72 -39 103 -46 64 -14 123 -47 117 -65 -3 -8 -28 -12
-78 -11 -92 0 -199 35 -243 79 -17 17 -51 45 -76 62 -25 17 -56 43 -69 57
l-24 26 34 0 c19 0 69 -15 111 -34z m346 4 c25 -11 53 -27 62 -34 8 -8 53 -21
99 -31 47 -9 93 -21 103 -26 57 -30 -59 -39 -189 -14 -43 8 -109 30 -148 49
-38 18 -87 39 -107 45 -38 12 -45 21 -30 35 13 15 161 -3 210 -24z m1398 -176
c8 -31 -6 -47 -37 -42 -27 3 -37 32 -19 53 20 24 49 18 56 -11z m-1456 -109
c81 -27 140 -59 140 -75 0 -17 -76 -11 -130 9 -54 21 -120 65 -120 82 0 15 30
11 110 -16z m-740 -10 c17 -9 30 -20 30 -25 0 -9 -65 10 -98 29 -29 18 34 13
68 -4z m426 -12 c9 -9 12 -19 7 -20 -17 -6 -65 16 -58 27 9 15 32 12 51 -7z
m1969 -63 c10 -11 16 -23 13 -26 -8 -7 -88 15 -88 25 0 27 50 28 75 1z m125
-100 c0 -5 -4 -10 -9 -10 -6 0 -13 5 -16 10 -3 6 1 10 9 10 9 0 16 -4 16 -10z
m-1725 -80 c118 -58 143 -76 129 -90 -12 -12 -134 17 -205 49 -45 20 -109 75
-109 94 0 20 89 -6 185 -53z m183 38 c25 -25 14 -41 -25 -35 -41 7 -59 20 -49
36 9 15 59 14 74 -1z m-440 -61 c11 -8 10 -13 -3 -26 -13 -14 -20 -14 -57 -1
-45 16 -59 36 -31 43 24 6 75 -3 91 -16z m567 -97 c3 -5 1 -10 -4 -10 -6 0
-11 5 -11 10 0 6 2 10 4 10 3 0 8 -4 11 -10z m4235 -100 c0 -36 -17 -48 -38
-27 -14 14 -13 18 2 42 20 31 36 24 36 -15z m-4854 -42 c12 -19 -35 -48 -77
-48 -68 0 -57 31 17 49 54 12 52 12 60 -1z m461 -9 c27 -10 28 -11 8 -25 -11
-9 -31 -13 -45 -10 -46 9 -81 26 -75 36 8 13 76 13 112 -1z m244 -59 c19 -11
27 -54 11 -64 -10 -6 -110 28 -124 42 -6 6 -7 15 -4 21 9 14 91 14 117 1z
m614 -60 c8 -14 -54 -50 -87 -50 -67 0 -101 36 -47 51 38 11 127 10 134 -1z
m-1161 -15 c4 -10 -1 -15 -16 -15 -17 0 -18 2 -8 15 7 8 14 15 15 15 2 0 5 -7
9 -15z m4286 -16 c0 -42 -40 -61 -74 -36 -17 13 -17 14 -1 30 18 19 75 23 75
6z m-4530 -46 c2 -2 -2 -8 -10 -13 -17 -10 -53 7 -44 21 5 9 41 4 54 -8z
m3088 -49 c-9 -10 -24 -14 -33 -10 -23 9 -9 26 23 26 24 0 25 -1 10 -16z
m-1758 -25 c15 -6 -13 -7 -75 -5 -55 2 -111 9 -125 15 -19 8 -2 9 75 4 55 -3
111 -10 125 -14z m-1134 -28 c-10 -15 -46 -14 -46 2 0 7 5 18 12 25 10 10 15
9 26 -2 8 -8 11 -19 8 -25z m-90 -32 c38 -11 103 -40 144 -63 216 -123 353
-186 800 -363 201 -80 401 -160 445 -179 68 -29 119 -39 345 -73 146 -22 312
-45 370 -52 133 -15 424 -13 515 3 67 13 72 12 155 -16 80 -28 94 -30 245 -30
88 0 237 2 330 4 137 3 184 0 240 -13 69 -17 104 -32 95 -40 -12 -11 -251 -39
-423 -49 -218 -13 -516 -2 -817 32 -214 24 -1040 143 -1155 166 -239 48 -510
144 -975 344 -213 92 -527 276 -491 288 7 2 52 -16 100 -40 291 -152 372 -191
487 -236 71 -28 143 -54 159 -57 l30 -7 -25 21 c-31 25 -58 39 -182 92 -106
44 -373 190 -444 241 -73 52 -57 61 52 27z m400 -20 c9 -15 -16 -59 -33 -59
-21 0 -63 31 -63 45 0 7 6 16 13 18 23 10 76 7 83 -4z m2233 -115 c6 -14 11
-55 11 -93 0 -63 -2 -69 -32 -98 -68 -63 -100 -64 -113 -2 -10 43 -28 45 -79
9 -48 -35 -79 -36 -84 -5 -5 37 32 85 113 145 110 83 161 95 184 44z m-249
-13 c0 -14 -64 -59 -95 -67 -39 -10 -25 10 33 47 48 30 62 35 62 20z m-220
-50 c0 -10 -7 -24 -15 -31 -12 -10 -15 -10 -15 3 0 23 11 47 21 47 5 0 9 -8 9
-19z m2550 -22 c118 -16 232 -29 253 -29 25 0 37 -4 37 -14 0 -8 -17 -25 -37
-38 -33 -20 -53 -23 -158 -26 -66 -2 -199 3 -295 11 -96 9 -212 13 -256 10
-108 -8 -174 2 -174 26 0 19 31 51 69 71 71 37 239 33 561 -11z m-1813 15 c7
-19 -42 -71 -114 -121 -57 -39 -79 -38 -89 2 -9 34 16 70 69 96 78 40 124 48
134 23z m2811 -31 c2 -15 -4 -23 -18 -28 -30 -10 -45 7 -30 35 14 26 44 22 48
-7z m-478 -21 c0 -29 -23 -54 -43 -46 -20 7 -21 17 -7 45 14 25 50 25 50 1z
m1139 2 c31 -31 -376 -72 -465 -46 -85 24 -54 37 126 52 104 8 329 5 339 -6z
m-5521 -58 c6 -29 -10 -37 -50 -25 -66 18 -62 52 5 47 31 -2 43 -8 45 -22z
m2255 -2 c12 -12 -12 -42 -59 -73 -57 -38 -78 -40 -69 -8 15 51 102 106 128
81z m-1223 -44 c0 -17 -34 -50 -52 -50 -16 0 -7 41 12 60 23 23 40 19 40 -10z
m968 -45 c-27 -36 -39 -44 -66 -45 -51 0 -54 27 -7 67 45 39 98 57 103 36 2
-8 -11 -34 -30 -58z m-828 9 c0 -8 -7 -14 -15 -14 -15 0 -21 21 -9 33 10 9 24
-2 24 -19z m1289 -30 c-24 -23 -48 -37 -74 -41 -36 -5 -39 -4 -25 10 19 21
123 77 129 71 3 -3 -11 -20 -30 -40z m-2044 -10 c110 -25 248 -54 307 -64 101
-18 238 -70 238 -90 0 -26 -144 -15 -330 26 -151 34 -241 64 -350 119 -139 70
-132 70 135 9z m1905 16 c0 -6 -17 -29 -38 -51 -26 -29 -42 -38 -55 -34 -46
18 12 91 76 94 9 1 17 -4 17 -9z m310 -11 c-14 -24 -141 -120 -155 -116 -22 7
-16 47 10 71 34 32 103 66 133 66 20 0 21 -3 12 -21z m-676 -98 c3 -5 -1 -12
-10 -15 -22 -9 -24 -8 -24 9 0 16 25 21 34 6z m1096 -268 c0 -3 -7 -15 -17
-25 -18 -21 -45 -23 -75 -7 -21 11 -21 12 -3 25 19 14 95 20 95 7z"/>
<path d="M6383 12782 c-21 -14 -43 -80 -43 -132 0 -46 3 -51 28 -61 44 -17
127 -23 150 -10 45 24 17 130 -48 185 -31 26 -64 33 -87 18z"/>
<path d="M6735 12734 c-44 -15 -85 -52 -111 -100 -17 -32 -17 -35 -2 -51 19
-18 17 -20 35 41 7 24 17 31 55 41 54 14 98 40 98 59 0 20 -33 25 -75 10z"/>
<path d="M5615 12554 c-81 -14 -205 -68 -213 -91 -7 -23 59 -14 138 17 88 34
111 36 166 11 38 -18 46 -18 104 -4 110 25 149 58 89 74 -41 12 -200 8 -284
-7z"/>
<path d="M5340 12425 c-7 -8 -9 -22 -6 -31 5 -13 9 -14 21 -4 16 13 21 50 6
50 -5 0 -14 -7 -21 -15z"/>
<path d="M5109 12356 c-12 -6 -27 -19 -33 -29 -9 -15 -4 -23 29 -53 37 -32 44
-34 98 -31 34 2 64 10 73 18 13 14 12 18 -6 42 -26 33 -45 44 -98 55 -27 7
-48 6 -63 -2z"/>
<path d="M4923 12333 c-18 -8 -33 -19 -33 -24 0 -15 57 -10 70 6 21 25 -1 36
-37 18z"/>
<path d="M4922 12224 c-21 -15 -52 -63 -52 -82 0 -5 18 -12 41 -15 22 -3 79
-28 128 -56 126 -73 170 -65 125 20 -56 110 -179 177 -242 133z"/>
<path d="M6772 11788 c-74 -93 -122 -372 -78 -457 39 -75 96 -60 146 38 48 96
100 321 74 321 -17 0 -32 -36 -58 -135 -26 -96 -39 -125 -57 -125 -16 0 -10
94 11 175 23 89 25 133 8 170 -12 27 -30 32 -46 13z"/>
<path d="M5420 11495 c0 -8 5 -15 10 -15 6 0 10 7 10 15 0 8 -4 15 -10 15 -5
0 -10 -7 -10 -15z"/>
<path d="M5537 11328 c19 -44 27 -84 29 -132 l1 -69 46 -33 c53 -38 143 -89
175 -99 36 -11 27 16 -23 65 l-45 44 30 12 c17 7 30 18 30 23 0 12 -45 46
-123 92 -43 25 -68 49 -99 96 -22 35 -42 63 -43 63 -2 0 8 -28 22 -62z"/>
<path d="M5766 11328 c-18 -25 -9 -47 29 -72 32 -21 45 -14 45 25 0 64 -43 92
-74 47z"/>
<path d="M6561 11130 c0 -8 6 -26 14 -40 8 -14 14 -19 14 -10 0 8 -6 26 -14
40 -8 14 -14 19 -14 10z"/>
<path d="M5447 11002 c12 -11 52 -27 89 -36 37 -9 86 -28 108 -41 47 -27 179
-75 204 -75 47 1 -119 95 -243 137 -38 13 -94 26 -125 29 l-55 5 22 -19z"/>
<path d="M6616 10978 c15 -48 43 -106 54 -113 16 -10 6 24 -26 88 -26 49 -40
63 -28 25z"/>
<path d="M5343 10964 c-8 -22 43 -119 80 -150 16 -13 54 -31 85 -40 31 -9 96
-31 143 -50 93 -37 129 -42 129 -20 0 30 -193 172 -315 233 -82 41 -114 48
-122 27z"/>
<path d="M5180 10855 c0 -9 44 -59 98 -110 87 -85 103 -95 150 -105 56 -12 82
-9 82 11 0 36 -213 184 -307 213 -18 6 -23 3 -23 -9z"/>
<path d="M5140 10757 c0 -2 20 -35 45 -71 72 -108 58 -123 -49 -51 -64 43 -96
55 -96 37 0 -10 87 -110 174 -199 60 -63 86 -74 131 -57 38 15 59 117 34 167
-21 40 -72 86 -108 98 -20 6 -52 23 -71 38 -41 32 -60 44 -60 38z"/>
<path d="M5550 10536 c0 -23 43 -96 60 -101 31 -10 35 0 15 32 -32 50 -75 90
-75 69z"/>
<path d="M5456 10507 c-16 -12 -16 -14 -2 -26 19 -16 36 -6 36 20 0 22 -9 24
-34 6z"/>
<path d="M6877 10502 c-14 -21 -21 -158 -9 -166 7 -4 13 10 17 36 8 57 3 147
-8 130z"/>
<path d="M6311 10460 c1 -25 5 -58 9 -75 11 -47 24 -5 16 53 -9 64 -26 79 -25
22z"/>
<path d="M6532 10443 c-13 -30 -17 -68 -17 -183 0 -162 11 -209 68 -279 18
-21 40 -53 49 -70 36 -66 77 -45 103 54 20 77 19 92 -4 100 -29 9 -34 37 -27
135 8 100 -4 125 -55 118 -26 -4 -29 -1 -35 31 -13 79 -35 131 -56 131 -5 0
-17 -17 -26 -37z"/>
<path d="M6956 10462 c-10 -16 -26 -137 -25 -187 l1 -50 19 60 c24 73 37 185
21 185 -6 0 -13 -4 -16 -8z"/>
<path d="M5740 10398 c1 -138 111 -451 191 -543 38 -43 57 -44 94 -5 38 39 60
38 103 -7 22 -23 33 -30 28 -18 -32 81 -29 108 14 124 17 5 30 16 30 24 0 42
-235 321 -313 372 -53 34 -51 22 26 -165 19 -47 38 -101 42 -120 l7 -35 -21
19 c-25 23 -181 330 -181 357 0 11 -4 19 -10 19 -5 0 -10 -10 -10 -22z"/>
<path d="M5476 10258 c-10 -37 -7 -63 9 -84 22 -28 34 -3 24 49 -4 23 -8 45
-9 50 -1 16 -18 5 -24 -15z"/>
<path d="M5675 10160 c-16 -18 -17 -23 -5 -45 19 -35 57 -68 69 -60 27 16 -2
125 -33 125 -7 0 -21 -9 -31 -20z"/>
<path d="M7034 9936 c-3 -21 -4 -39 -1 -42 3 -4 9 10 13 30 3 21 4 39 1 42 -3
4 -9 -10 -13 -30z"/>
<path d="M7096 9734 c-9 -25 -7 -72 4 -79 6 -4 10 13 10 44 0 53 -4 62 -14 35z"/>
<path d="M6092 9290 c16 -38 33 -40 33 -2 0 21 -5 28 -23 30 -22 3 -22 2 -10
-28z"/>
<path d="M6456 9266 c7 -17 54 -50 54 -38 0 10 -43 52 -53 52 -3 0 -4 -6 -1
-14z"/>
<path d="M7213 9174 c-14 -36 56 -232 78 -219 13 9 11 115 -2 156 -12 35 -46
79 -61 79 -5 0 -11 -7 -15 -16z"/>
<path d="M7399 8643 c-12 -30 -1 -78 16 -75 14 2 19 102 5 102 -6 0 -15 -12
-21 -27z"/>
<path d="M7680 8291 c0 -8 38 -102 43 -107 1 -2 14 -5 30 -9 24 -6 27 -4 27
17 0 28 -64 108 -86 108 -8 0 -14 -4 -14 -9z"/>
<path d="M7861 8023 c0 -23 4 -45 9 -48 11 -7 11 16 0 60 -7 28 -8 28 -9 -12z"/>
<path d="M7952 7885 c3 -25 18 -69 33 -100 30 -58 113 -158 147 -176 20 -11
21 -9 16 28 -7 50 -54 146 -93 189 -16 18 -43 49 -58 69 -38 48 -51 45 -45
-10z"/>
<path d="M9422 6809 c2 -7 10 -15 17 -17 8 -3 12 1 9 9 -2 7 -10 15 -17 17 -8
3 -12 -1 -9 -9z"/>
<path d="M5190 8031 c10 -21 30 -37 30 -26 0 14 -21 45 -31 45 -6 0 -6 -7 1
-19z"/>
<path d="M23580 14276 c-37 -13 -76 -35 -275 -156 -135 -83 -262 -144 -414
-202 -128 -48 -170 -69 -199 -101 -32 -34 -43 -86 -26 -125 14 -34 46 -53 171
-102 94 -36 187 -94 232 -146 43 -49 66 -98 87 -184 17 -70 18 -187 22 -1840
2 -1209 0 -1794 -8 -1858 -13 -120 -44 -211 -87 -262 -39 -45 -72 -65 -147
-87 -75 -22 -119 -47 -154 -88 -28 -31 -32 -43 -32 -90 0 -43 5 -60 24 -82 23
-26 30 -28 113 -31 48 -2 185 3 303 12 409 30 772 40 972 28 101 -6 197 -8
213 -4 52 14 70 117 31 177 -24 36 -76 54 -223 75 -183 27 -264 52 -312 96
-81 72 -101 175 -101 507 0 213 1 224 24 272 27 57 74 104 164 164 65 44 178
101 199 101 39 0 68 -31 148 -160 255 -413 527 -773 879 -1163 39 -44 89 -88
111 -100 51 -27 126 -28 410 -5 116 9 287 20 380 23 258 10 305 33 305 152 0
117 -21 131 -211 142 -165 10 -234 29 -344 93 -152 89 -331 252 -534 488 -211
244 -539 701 -618 860 -58 117 -60 109 55 221 205 199 439 372 632 469 180 90
324 132 532 153 161 17 204 34 232 90 25 51 15 120 -23 157 l-27 28 -470 6
c-514 7 -850 19 -1017 37 -102 12 -109 11 -135 -8 -57 -42 -66 -144 -18 -199
19 -23 41 -31 142 -51 192 -37 270 -89 244 -160 -6 -15 -23 -45 -38 -67 -35
-50 -456 -410 -789 -674 -140 -111 -202 -131 -229 -75 -5 10 -10 817 -12 1793
-2 1657 -4 1777 -20 1809 -31 63 -97 90 -162 67z"/>
<path d="M15015 14217 c-49 -24 -136 -72 -193 -106 -142 -85 -307 -166 -431
-213 -189 -71 -231 -104 -231 -183 0 -61 27 -87 137 -134 153 -65 245 -138
294 -233 10 -20 29 -72 41 -115 l23 -78 0 -1865 c0 -1840 0 -1866 -20 -1920
-28 -77 -92 -139 -175 -170 -99 -36 -156 -67 -180 -97 -18 -23 -21 -38 -18
-85 5 -67 24 -93 75 -101 19 -4 119 0 222 8 342 27 686 35 946 22 310 -15 334
-14 367 7 30 20 48 62 48 113 0 26 -8 43 -33 68 -36 36 -52 41 -227 74 -122
23 -216 60 -281 111 -46 37 -95 131 -109 210 -13 74 -30 3693 -19 4080 16 581
17 570 -36 620 -44 41 -97 38 -200 -13z"/>
<path d="M10167 13858 c-21 -17 -47 -80 -47 -116 0 -55 37 -92 164 -159 181
-97 263 -169 311 -278 52 -118 50 -29 50 -1925 0 -1678 -1 -1769 -18 -1845
-52 -223 -156 -334 -342 -366 -80 -13 -117 -30 -139 -61 -33 -46 -12 -144 36
-169 26 -14 103 -14 208 0 41 6 185 16 320 22 252 13 563 6 995 -22 143 -10
192 -10 240 1 115 24 162 115 98 190 -35 42 -52 48 -234 75 -255 39 -382 78
-436 137 -12 12 -31 43 -42 68 -20 44 -21 61 -21 942 l0 898 26 6 c39 10 712
-3 829 -16 233 -25 321 -130 421 -504 22 -82 48 -106 119 -106 65 0 112 21
120 53 3 12 7 220 9 462 3 451 11 561 54 820 10 55 16 110 14 122 -8 54 -137
98 -204 70 -49 -21 -64 -54 -93 -204 -40 -206 -59 -253 -120 -289 -53 -31
-117 -38 -520 -58 -462 -24 -596 -24 -628 -3 l-27 17 0 898 c0 999 -5 927 69
960 76 35 1071 24 1288 -14 216 -37 335 -143 454 -402 76 -165 82 -175 118
-199 40 -27 115 -31 148 -8 33 23 41 66 48 270 7 226 28 449 55 589 11 55 20
105 20 109 0 4 -17 15 -37 24 -41 17 -133 16 -603 -7 -358 -18 -1375 -28
-1840 -19 -419 8 -536 14 -705 38 -94 14 -138 14 -158 -1z"/>
<path d="M20950 11924 c-430 -30 -752 -211 -885 -499 -109 -235 -90 -557 46
-759 116 -174 256 -261 961 -599 266 -128 382 -216 434 -330 25 -54 29 -74 29
-152 -1 -71 -5 -100 -23 -140 -68 -149 -226 -217 -502 -216 -398 1 -672 141
-872 447 -86 131 -147 164 -211 113 -42 -32 -49 -82 -48 -329 2 -247 11 -343
36 -370 57 -63 439 -152 773 -181 176 -14 474 -7 596 16 251 46 444 143 589
294 138 144 196 286 204 501 13 319 -100 544 -357 711 -128 84 -250 146 -525
269 -289 129 -483 227 -552 279 -98 74 -149 189 -141 315 10 149 97 239 275
283 97 24 335 24 423 -1 199 -54 363 -182 512 -397 70 -100 96 -116 176 -104
52 8 120 39 128 59 3 7 -6 62 -20 122 -36 159 -83 391 -91 451 -9 67 -33 97
-98 121 -168 63 -612 112 -857 96z"/>
<path d="M17810 11903 c-286 -30 -679 -179 -951 -361 -113 -76 -211 -171 -234
-226 -34 -81 -12 -198 49 -261 48 -50 91 -65 191 -65 199 0 347 100 460 311
66 122 126 202 184 242 42 29 53 32 137 35 208 8 383 -84 457 -240 51 -107 60
-172 58 -408 -1 -201 -3 -218 -24 -260 -14 -29 -39 -56 -69 -76 -48 -33 -74
-40 -348 -100 -720 -157 -1133 -387 -1257 -700 -25 -63 -27 -81 -28 -199 0
-108 4 -143 24 -205 61 -198 178 -335 355 -419 117 -55 174 -65 361 -66 262 0
388 34 748 200 104 47 204 89 223 92 34 6 39 2 157 -119 107 -109 129 -127
176 -141 118 -37 250 -8 478 107 131 65 279 163 322 211 36 42 41 90 13 145
-30 61 -52 65 -230 40 -212 -31 -277 -16 -325 74 l-22 41 0 915 c0 1013 3 961
-66 1106 -84 177 -257 291 -492 323 -73 10 -268 12 -347 4z m321 -1632 c18
-18 29 -41 30 -58 0 -15 0 -174 -1 -353 -1 -239 -5 -332 -14 -355 -53 -126
-432 -244 -689 -215 -215 25 -333 126 -368 315 -54 290 136 491 586 621 137
40 303 73 368 73 52 1 62 -2 88 -28z"/>
<path d="M17228 8245 c-49 -25 -88 -50 -88 -55 0 -6 20 -19 44 -29 28 -13 45
-27 49 -43 4 -12 7 -200 7 -416 l0 -393 43 -19 c58 -26 179 -44 235 -35 149
22 267 149 279 297 7 85 -10 141 -58 193 -69 74 -186 96 -299 54 -30 -11 -63
-22 -72 -26 -16 -5 -18 13 -20 253 -3 221 -5 259 -18 261 -8 1 -54 -18 -102
-42z m369 -534 c62 -45 86 -104 82 -201 -6 -122 -53 -172 -167 -178 -80 -4
-125 18 -148 73 -17 41 -20 246 -3 277 16 29 86 58 145 58 41 0 59 -6 91 -29z"/>
<path d="M18740 8250 c-47 -21 -86 -44 -88 -53 -2 -10 10 -22 30 -33 69 -35
68 -32 68 -196 l0 -148 -110 6 c-133 8 -179 -5 -254 -75 -67 -62 -96 -127 -96
-213 0 -151 76 -259 201 -287 53 -12 117 3 201 45 26 13 50 24 52 24 3 0 14
-21 25 -46 24 -53 24 -53 134 3 50 25 67 39 65 51 -2 13 -14 17 -43 17 -22 1
-46 4 -53 9 -10 6 -13 100 -12 454 1 246 1 455 0 465 0 24 -23 20 -120 -23z
m-75 -511 c79 -37 85 -52 85 -204 0 -145 0 -145 -67 -179 -39 -20 -115 -21
-151 -2 -35 18 -75 61 -98 106 -13 25 -19 57 -19 115 0 94 16 140 59 166 43
26 133 25 191 -2z"/>
<path d="M21223 8246 c-45 -22 -84 -47 -87 -54 -3 -7 12 -23 35 -37 22 -14 44
-37 49 -51 13 -34 13 -749 0 -774 -5 -10 -20 -20 -34 -24 -23 -6 -41 -30 -31
-45 7 -13 309 0 317 13 10 14 -19 36 -48 36 -13 0 -34 10 -48 23 l-26 22 -2
465 c-3 540 10 495 -125 426z"/>
<path d="M25890 7905 c-17 -24 -51 -58 -75 -75 -25 -17 -45 -38 -45 -46 0 -8
15 -21 34 -29 l34 -14 4 -193 c4 -214 11 -241 71 -279 62 -39 228 -11 261 43
16 26 5 29 -55 17 -65 -13 -133 1 -149 31 -6 12 -9 90 -8 202 l3 183 80 3 c67
2 83 6 98 23 34 41 24 48 -75 51 l-93 3 -8 63 c-11 78 -32 83 -77 17z"/>
<path d="M22343 7819 c-35 -16 -63 -34 -63 -39 0 -6 16 -20 36 -32 19 -11 40
-32 45 -45 10 -26 13 -694 3 -730 -3 -12 -22 -31 -41 -43 -19 -11 -32 -24 -29
-29 8 -12 318 -2 331 11 14 13 -17 34 -63 43 -20 4 -47 16 -59 28 -22 19 -23
28 -23 155 l0 134 33 -9 c17 -4 70 -8 117 -8 74 0 91 3 131 27 25 15 63 46 86
71 116 126 109 351 -15 432 -84 55 -180 57 -282 5 -33 -16 -61 -30 -63 -30 -3
0 -12 20 -21 45 -21 54 -34 56 -123 14z m356 -84 c92 -47 136 -197 93 -319
-25 -71 -56 -91 -142 -90 -51 1 -82 8 -117 25 l-48 24 0 137 c0 123 2 139 21
165 50 67 130 91 193 58z"/>
<path d="M16738 7826 c-130 -35 -208 -148 -208 -300 1 -184 139 -299 322 -266
106 20 218 84 218 126 0 20 -21 16 -110 -22 -77 -33 -158 -37 -207 -11 -33 17
-76 81 -86 127 -6 25 -4 26 161 75 92 26 182 55 200 64 37 17 43 49 12 69 -11
7 -20 18 -20 26 0 26 -97 103 -144 115 -55 14 -78 13 -138 -3z m128 -90 c64
-64 43 -96 -90 -136 -130 -39 -128 -39 -120 13 16 111 54 157 131 157 38 0 50
-5 79 -34z"/>
<path d="M19253 7822 c-108 -39 -173 -116 -193 -231 -38 -208 115 -369 315
-332 78 14 171 58 201 94 39 46 17 56 -54 24 -120 -54 -203 -56 -267 -5 -27
21 -64 89 -65 119 0 11 45 29 179 68 99 29 189 60 200 68 24 16 27 38 7 50 -7
4 -20 22 -29 38 -51 100 -181 147 -294 107z m117 -67 c35 -18 50 -43 50 -84 0
-33 -12 -39 -162 -85 l-78 -24 0 32 c0 18 7 56 16 85 11 39 23 57 47 71 38 24
87 26 127 5z"/>
<path d="M20698 7826 c-130 -35 -208 -148 -208 -300 1 -184 139 -299 322 -266
106 20 218 84 218 126 0 20 -21 16 -110 -22 -77 -33 -158 -37 -207 -11 -33 17
-76 81 -86 127 -6 25 -4 26 161 75 92 26 182 55 200 64 37 17 43 49 12 69 -11
7 -20 18 -20 26 0 26 -97 103 -144 115 -55 14 -78 13 -138 -3z m120 -81 c34
-29 47 -67 32 -95 -9 -17 -123 -59 -210 -76 l-31 -7 7 44 c10 74 24 107 55
134 42 35 106 35 147 0z"/>
<path d="M23184 7819 c-136 -72 -150 -89 -88 -109 54 -18 64 -53 63 -212 -1
-73 -4 -144 -8 -158 -4 -15 -21 -32 -41 -42 -19 -10 -35 -24 -35 -30 0 -10 36
-12 155 -9 85 1 159 7 164 11 15 14 -3 28 -45 35 -75 13 -79 23 -79 203 0 139
2 161 18 174 33 30 86 50 142 55 55 5 59 4 96 -30 l39 -35 3 -158 c2 -86 1
-167 -2 -180 -4 -16 -17 -26 -39 -32 -22 -6 -32 -14 -32 -28 0 -21 -11 -20
191 -16 94 2 105 4 102 19 -2 11 -21 22 -50 31 -60 16 -62 27 -53 228 l7 153
42 21 c61 29 154 37 194 16 55 -28 66 -64 70 -222 4 -159 0 -176 -54 -199 -69
-29 -38 -40 121 -43 82 -1 155 0 163 3 24 9 -4 32 -53 44 -25 6 -49 19 -55 30
-6 11 -10 88 -10 178 0 87 -5 176 -11 198 -35 126 -193 157 -366 72 l-63 -31
-32 31 c-68 66 -172 65 -297 -2 -35 -19 -67 -32 -72 -30 -4 3 -10 18 -14 34
-10 47 -26 53 -71 30z"/>
<path d="M24502 7822 c-74 -27 -122 -69 -159 -141 -30 -57 -33 -71 -33 -149 0
-99 17 -147 71 -200 65 -66 150 -90 250 -72 100 18 219 88 219 128 0 18 -23
13 -110 -24 -149 -62 -262 -18 -295 116 -6 25 -4 26 162 75 232 67 260 84 214
126 -11 11 -21 24 -21 29 0 5 -14 25 -32 45 -65 75 -169 101 -266 67z m127
-68 c32 -23 54 -79 41 -104 -9 -18 -124 -59 -211 -77 l-32 -6 7 54 c9 69 32
116 65 134 35 19 101 19 130 -1z"/>
<path d="M25074 7808 c-27 -17 -64 -37 -81 -45 -43 -18 -42 -39 4 -58 21 -9
41 -21 45 -28 12 -18 10 -335 -2 -358 -6 -10 -17 -19 -25 -19 -19 0 -48 -31
-38 -41 5 -5 76 -5 158 -1 121 6 150 10 150 22 0 8 -18 19 -44 27 -72 21 -71
17 -71 198 0 179 -2 174 69 210 43 22 125 25 168 6 57 -24 73 -74 73 -235 0
-75 -4 -145 -10 -155 -5 -10 -23 -24 -40 -31 -16 -7 -30 -19 -30 -26 0 -11 26
-14 120 -16 66 -1 135 -2 152 -2 50 -1 50 30 1 43 -79 21 -77 18 -83 223 -4
159 -8 188 -26 223 -48 94 -183 112 -321 42 -40 -21 -75 -37 -77 -37 -3 0 -8
16 -12 35 -10 55 -24 59 -80 23z"/>
<path d="M15876 7820 c-133 -6 -152 -16 -87 -50 41 -20 81 -79 81 -117 -1 -24
-102 -215 -117 -220 -12 -4 -135 236 -146 285 -4 18 2 28 34 48 21 13 39 32
39 40 0 14 -8 16 -46 10 -26 -3 -93 -6 -150 -6 -116 0 -130 -10 -66 -46 33
-19 51 -47 141 -220 132 -251 154 -289 171 -289 7 0 49 69 93 153 44 83 83
152 87 152 3 0 41 -72 83 -161 49 -103 81 -159 89 -157 19 7 87 131 174 318
42 91 81 171 87 178 6 8 26 21 45 30 19 9 35 22 36 27 1 11 -254 26 -267 15
-10 -9 19 -40 37 -40 7 0 21 -9 31 -20 23 -25 18 -43 -61 -209 -48 -101 -56
-113 -69 -100 -26 25 -126 270 -123 298 2 18 13 30 36 40 38 17 45 52 10 49
-13 -1 -77 -4 -142 -8z"/>
<path d="M21795 7817 c-65 -17 -88 -30 -143 -81 -62 -56 -92 -124 -92 -205 0
-85 16 -134 61 -185 56 -64 123 -90 229 -90 96 -1 165 24 233 83 116 103 123
306 12 414 -63 61 -198 90 -300 64z m128 -71 c106 -44 160 -227 100 -342 -37
-72 -135 -104 -217 -70 -41 17 -90 75 -105 126 -18 59 -16 162 4 203 39 83
133 119 218 83z"/>
<path d="M19805 7810 c-68 -3 -120 -9 -120 -15 0 -5 14 -19 32 -30 24 -15 51
-55 103 -155 80 -153 210 -360 225 -360 12 0 117 189 203 363 55 113 85 157
108 157 15 0 37 27 27 33 -4 3 -59 6 -122 8 -126 4 -146 -4 -86 -39 21 -13 35
-29 35 -41 0 -42 -136 -325 -152 -315 -17 11 -149 265 -155 297 -5 34 -3 37
33 54 48 23 59 54 17 51 -15 -1 -82 -4 -148 -8z"/>
<path d="M26345 7395 c-41 -40 -34 -79 25 -137 28 -27 50 -56 50 -65 0 -32
-33 -82 -71 -109 -40 -27 -51 -60 -24 -70 29 -11 112 62 147 130 28 54 41 147
28 196 -20 76 -105 106 -155 55z"/>
<path d="M18565 6943 c-16 -9 -55 -27 -85 -39 -66 -28 -72 -51 -19 -76 59 -27
60 -31 57 -194 l-3 -149 -40 5 c-92 11 -209 5 -244 -14 -62 -33 -136 -117
-156 -175 -34 -104 -7 -239 64 -314 75 -81 168 -92 299 -34 l83 36 19 -45 c11
-24 25 -44 32 -44 7 1 47 18 88 38 56 28 75 42 75 57 0 17 -6 20 -42 17 -34
-3 -44 1 -53 19 -9 16 -11 141 -10 463 1 242 2 447 1 454 -1 17 -30 15 -66 -5z
m-128 -537 c79 -37 84 -50 81 -212 l-3 -138 -33 -19 c-104 -61 -217 -26 -273
86 -56 108 -23 270 61 300 38 14 117 6 167 -17z"/>
<path d="M24445 6804 c-47 -51 -21 -124 44 -126 26 -1 40 6 58 26 30 35 32
100 4 116 -36 19 -80 12 -106 -16z"/>
<path d="M22021 6572 c-18 -26 -51 -60 -72 -75 -48 -35 -50 -59 -6 -78 l32
-14 5 -200 c5 -186 7 -202 27 -231 31 -43 70 -57 150 -52 82 4 146 33 151 68
3 17 0 21 -12 17 -68 -26 -176 -14 -192 21 -4 9 -9 95 -12 191 -5 207 -8 201
105 201 70 0 73 1 88 30 8 16 15 31 15 34 0 3 -44 7 -97 8 l-98 3 -5 60 c-4
51 -8 60 -25 62 -14 2 -30 -12 -54 -45z"/>
<path d="M23940 6594 c-8 -15 -41 -50 -72 -79 -63 -57 -72 -81 -33 -91 14 -3
30 -14 35 -24 6 -10 10 -97 11 -192 0 -197 8 -231 59 -266 31 -21 44 -23 110
-20 89 4 153 31 158 68 3 17 0 21 -12 17 -38 -15 -116 -19 -149 -8 -50 17 -57
46 -57 237 0 191 -4 184 110 184 71 0 71 0 85 33 l13 32 -96 5 -97 5 -5 60
c-4 51 -8 60 -26 63 -13 2 -25 -6 -34 -24z"/>
<path d="M20176 6490 c-83 -40 -84 -43 -34 -77 29 -19 45 -38 49 -58 11 -50
10 -681 -1 -710 -5 -14 -23 -34 -40 -43 -61 -34 -39 -41 123 -36 83 2 158 4
165 4 6 0 12 8 12 19 0 14 -12 22 -47 30 -94 24 -93 22 -93 182 l0 141 23 -7
c12 -4 59 -10 103 -12 98 -6 147 12 218 77 66 61 99 136 100 230 1 90 -15 140
-61 191 -72 80 -200 97 -310 41 -34 -18 -65 -32 -67 -32 -3 0 -14 20 -25 45
-24 53 -33 55 -115 15z m372 -99 c17 -12 42 -44 56 -73 33 -66 36 -189 7 -254
-35 -76 -143 -95 -257 -45 l-44 20 0 131 c0 139 6 165 52 207 51 48 131 54
186 14z"/>
<path d="M17257 6496 c-141 -38 -231 -180 -213 -336 24 -203 222 -295 427
-199 73 35 109 64 109 91 0 24 -6 23 -82 -11 -122 -56 -210 -51 -267 14 -27
31 -61 110 -50 118 2 2 82 27 178 55 96 29 185 59 198 67 26 18 30 43 8 52 -9
3 -24 22 -35 43 -25 48 -82 91 -144 107 -60 15 -67 15 -129 -1z m86 -65 c60
-23 87 -91 50 -123 -10 -9 -43 -23 -73 -32 -30 -9 -77 -23 -104 -31 l-49 -15
6 58 c2 33 12 73 21 90 27 53 90 75 149 53z"/>
<path d="M18950 6484 c-19 -14 -54 -34 -77 -45 -24 -10 -43 -24 -43 -31 0 -7
21 -25 45 -40 l45 -27 0 -163 c0 -90 -4 -168 -8 -174 -4 -6 -22 -19 -40 -28
-23 -12 -32 -22 -28 -32 3 -9 6 -16 6 -17 0 -1 71 -1 157 -1 145 1 158 3 158
19 0 13 -16 23 -54 37 -30 10 -58 24 -63 31 -4 6 -8 76 -8 155 0 138 7 176 34
194 15 10 83 9 128 -1 47 -11 73 6 82 54 8 40 -5 71 -33 80 -31 9 -101 -13
-158 -51 -29 -19 -55 -34 -57 -34 -2 0 -7 17 -11 38 -7 36 -21 62 -34 62 -3
-1 -22 -12 -41 -26z"/>
<path d="M26230 6501 c-83 -17 -163 -78 -202 -156 -23 -45 -34 -148 -24 -218
15 -101 112 -189 224 -203 113 -14 312 69 312 131 0 22 -20 19 -96 -17 -90
-43 -181 -46 -233 -9 -36 26 -90 127 -75 141 5 4 87 31 183 60 96 28 183 56
193 61 21 11 24 45 4 56 -7 4 -20 22 -29 38 -44 86 -156 136 -257 116z m80
-76 c40 -21 65 -70 51 -101 -8 -18 -34 -30 -123 -58 -61 -20 -114 -33 -117
-31 -10 10 19 131 37 155 37 49 97 63 152 35z"/>
<path d="M15742 6489 c-229 -37 -341 -308 -198 -475 54 -63 121 -89 231 -89
107 0 165 22 233 88 58 56 84 108 90 182 16 202 -138 329 -356 294z m114 -79
c78 -38 118 -127 112 -245 -4 -82 -20 -113 -78 -152 -39 -27 -112 -31 -163 -9
-68 28 -117 124 -117 228 0 149 123 237 246 178z"/>
<path d="M16355 6486 c-11 -7 -44 -27 -74 -43 -30 -16 -57 -35 -59 -41 -2 -6
15 -19 38 -28 26 -10 45 -26 51 -41 12 -32 12 -295 -1 -327 -5 -14 -23 -32
-40 -41 -16 -8 -30 -23 -30 -32 0 -14 11 -15 92 -9 50 3 120 6 155 6 55 0 63
2 63 19 0 15 -10 21 -41 26 -75 13 -79 24 -79 200 0 144 2 157 21 176 48 48
168 66 229 34 48 -25 62 -64 67 -199 7 -150 -4 -200 -47 -215 -30 -10 -41 -36
-17 -42 6 -2 75 -4 152 -4 118 0 140 2 140 15 0 9 -17 20 -40 28 -72 24 -72
23 -77 215 -3 159 -5 176 -28 222 -52 104 -177 124 -320 51 -74 -37 -90 -38
-90 -6 0 49 -26 63 -65 36z"/>
<path d="M19647 6489 c-65 -10 -128 -42 -177 -91 -59 -56 -84 -117 -84 -203
-1 -174 128 -286 313 -273 125 9 221 71 272 173 29 60 31 71 27 143 -5 95 -32
150 -96 199 -62 47 -161 68 -255 52z m113 -81 c81 -41 130 -166 110 -277 -15
-84 -82 -141 -162 -141 -94 0 -152 47 -182 149 -30 104 -15 185 45 243 55 53
118 61 189 26z"/>
<path d="M21463 6486 c-104 -34 -175 -96 -154 -135 27 -49 86 -32 136 39 36
51 66 60 114 36 36 -19 56 -78 46 -137 -6 -37 -9 -40 -63 -55 -171 -46 -232
-76 -257 -124 -32 -63 -7 -143 56 -176 44 -22 136 -14 209 19 l56 25 33 -30
c39 -35 68 -33 138 8 71 41 71 70 2 65 -69 -4 -69 -2 -69 215 l0 194 -29 32
c-27 30 -34 33 -102 35 -43 2 -92 -3 -116 -11z m143 -322 c9 -34 -2 -122 -17
-140 -16 -20 -87 -37 -123 -30 -45 9 -66 34 -66 76 0 46 30 76 102 101 75 26
96 24 104 -7z"/>
<path d="M22980 6479 c-90 -35 -135 -69 -138 -107 -3 -25 1 -34 20 -43 35 -16
73 3 110 56 18 25 42 48 55 51 61 16 113 -41 113 -123 0 -47 -17 -70 -58 -79
-15 -3 -65 -17 -112 -31 -69 -21 -92 -33 -127 -68 -48 -47 -54 -79 -29 -140
33 -79 137 -97 257 -46 l66 28 32 -29 c38 -34 52 -35 116 -4 90 41 103 88 22
79 -67 -8 -71 6 -62 192 7 170 0 217 -41 255 -36 35 -146 39 -224 9z m158
-365 c3 -83 -5 -97 -70 -115 -81 -21 -138 8 -138 71 0 26 7 43 25 60 29 27
120 61 155 57 24 -2 25 -5 28 -73z"/>
<path d="M24418 6453 c-49 -24 -88 -50 -88 -56 0 -7 17 -21 37 -32 21 -11 43
-31 50 -45 15 -30 18 -276 4 -313 -6 -14 -23 -29 -41 -36 -22 -7 -31 -16 -28
-28 3 -16 17 -18 148 -17 137 1 145 2 148 21 2 16 -7 24 -43 38 -31 11 -49 25
-56 42 -5 13 -9 125 -9 249 0 207 -1 224 -17 223 -10 -1 -57 -22 -105 -46z"/>
<path d="M24839 6468 c-90 -53 -92 -55 -86 -71 3 -8 20 -18 37 -22 49 -11 60
-49 60 -208 0 -160 -8 -189 -55 -206 -19 -7 -35 -19 -35 -26 0 -12 25 -14 158
-9 86 4 161 10 166 14 15 15 -3 28 -49 34 -70 11 -75 24 -75 207 l0 158 26 20
c32 25 114 51 161 51 24 0 43 -9 69 -32 30 -29 36 -42 46 -103 13 -84 6 -268
-11 -288 -6 -8 -25 -17 -42 -21 -22 -4 -30 -11 -27 -23 3 -16 18 -18 128 -20
69 -1 135 1 148 3 39 8 23 37 -27 49 -58 14 -61 24 -52 222 l6 158 43 22 c61
31 139 39 185 19 62 -25 77 -72 77 -241 0 -77 -5 -147 -10 -155 -5 -8 -24 -20
-42 -26 -18 -6 -33 -17 -33 -25 0 -11 29 -15 150 -17 82 -1 155 0 163 3 22 8
-3 32 -42 39 -70 13 -70 14 -76 223 -5 184 -6 191 -32 230 -39 59 -83 76 -184
71 -70 -4 -94 -10 -153 -39 l-71 -35 -26 27 c-39 41 -75 52 -152 47 -53 -3
-84 -11 -138 -38 -38 -19 -73 -35 -78 -35 -5 0 -14 16 -21 35 -15 46 -37 48
-106 8z"/>
</g>
</svg>
