<?xml version="1.0" standalone="no"?>
<!DOCTYPE svg PUBLIC "-//W3C//DTD SVG 20010904//EN"
 "http://www.w3.org/TR/2001/REC-SVG-20010904/DTD/svg10.dtd">
<svg version="1.0" xmlns="http://www.w3.org/2000/svg"
 width="512.000000pt" height="256.000000pt" viewBox="0 0 512.000000 256.000000"
 preserveAspectRatio="xMidYMid meet">

<g transform="translate(0.000000,256.000000) scale(0.100000,-0.100000)"
fill="#000000" stroke="none">
<path d="M496 2121 c-20 -22 -15 -50 14 -76 28 -26 25 -40 -15 -71 -31 -23
-35 -31 -30 -55 10 -46 -2 -67 -46 -81 -50 -14 -70 -45 -43 -65 10 -7 13 -13
6 -13 -23 0 -82 -63 -93 -99 -10 -32 -8 -45 14 -97 14 -34 40 -117 57 -185 36
-148 76 -254 137 -369 166 -311 372 -496 649 -583 229 -72 626 -84 829 -25 42
12 85 18 107 15 21 -3 40 -1 43 4 3 4 33 13 66 20 83 16 106 40 72 74 -12 13
-28 16 -61 12 -25 -3 -58 0 -74 5 -20 7 -33 7 -43 -2 -10 -8 -30 -10 -67 -4
-29 5 -64 7 -77 6 -50 -6 -55 5 -22 50 33 45 32 58 -3 58 -27 0 -79 -37 -71
-51 4 -5 0 -9 -8 -9 -8 0 -22 -9 -32 -20 -21 -23 -39 -20 -170 21 -97 31 -220
96 -292 155 -53 44 -159 166 -210 243 -75 113 -113 271 -134 554 -11 153 -10
170 4 185 15 14 22 15 64 3 69 -20 123 -25 123 -12 0 29 -72 74 -170 106 -30
10 -67 26 -81 36 -14 10 -37 21 -51 24 -14 4 -28 15 -31 25 -3 11 -17 22 -33
25 -91 20 -109 29 -114 60 -5 29 -7 30 -63 33 -60 3 -60 3 -57 64 1 27 -4 39
-19 47 -30 16 -56 13 -75 -8z m58 3 c28 -11 17 -32 -19 -36 -39 -4 -39 -4 -25
23 11 20 19 23 44 13z m91 -134 c3 -6 -4 -10 -17 -10 -18 0 -20 2 -8 10 19 12
18 12 25 0z m51 -71 c16 -13 5 -49 -14 -49 -22 0 -52 30 -52 53 0 16 5 18 27
12 16 -4 33 -11 39 -16z m-71 -29 c4 -6 -8 -10 -29 -10 -19 0 -43 -2 -53 -5
-10 -3 -4 1 12 9 35 18 61 20 70 6z m150 -30 c-4 -6 -1 -18 7 -27 11 -15 11
-16 -4 -10 -12 4 -18 1 -18 -9 0 -27 -31 -29 -51 -3 -12 15 -22 20 -26 14 -5
-6 -31 -9 -63 -6 l-55 4 80 22 c89 25 140 31 130 15z m-230 -50 c-11 -5 -27
-9 -35 -9 -9 0 -8 4 5 9 11 5 27 9 35 9 9 0 8 -4 -5 -9z m475 -25 c0 -53 -48
-75 -215 -101 -108 -16 -120 -19 -210 -58 -33 -14 -61 -21 -63 -16 -6 16 -59
11 -66 -5 -3 -8 -14 -15 -24 -15 -25 0 -56 35 -49 55 4 8 1 15 -6 15 -23 0
-37 -24 -37 -65 -1 -40 -1 -40 -15 -15 -32 55 -8 92 70 110 30 7 35 5 35 -11
0 -10 9 -23 19 -29 25 -13 61 -13 61 0 0 6 -5 10 -11 10 -6 0 -9 6 -6 13 2 6
-3 17 -12 24 -14 10 -14 12 -1 16 74 22 294 77 327 83 39 6 41 5 36 -15 -4
-16 -1 -21 16 -21 22 0 28 14 11 25 -24 15 6 25 71 25 67 0 69 -1 69 -25z
m139 -44 c7 -5 12 -14 9 -21 -2 -7 -10 -4 -22 9 -19 21 -12 28 13 12z m-184
-80 c3 -11 5 -46 5 -78 -2 -108 9 -254 19 -267 8 -10 6 -19 -9 -36 -11 -13
-20 -28 -20 -34 0 -6 7 -2 15 8 8 11 16 18 18 15 2 -2 14 -44 27 -94 12 -49
27 -98 32 -108 7 -14 5 -24 -7 -37 -15 -17 -15 -19 4 -25 11 -3 23 -15 26 -26
4 -10 10 -17 15 -14 12 8 38 -20 77 -81 18 -27 44 -61 58 -74 14 -13 25 -31
25 -40 0 -27 71 -87 135 -115 71 -31 72 -32 119 -68 20 -17 49 -30 68 -30 18
-1 40 -9 49 -18 9 -9 35 -20 58 -24 23 -4 41 -10 41 -15 0 -27 -100 -11 -195
31 -47 21 -97 22 -139 4 -15 -7 -17 -5 -11 6 5 8 -1 5 -13 -5 -22 -19 -23 -19
-50 7 -16 15 -31 25 -34 21 -4 -3 -15 -1 -26 5 -14 8 -19 18 -16 35 4 22 0 24
-48 30 -61 8 -88 21 -88 41 0 23 37 18 43 -5 4 -16 14 -20 43 -20 l38 0 -44
46 c-33 33 -79 62 -167 105 -68 32 -123 61 -123 63 0 2 11 3 24 2 13 0 22 -4
20 -7 -6 -10 26 -20 38 -12 7 3 8 1 4 -5 -5 -8 0 -12 13 -12 11 0 22 4 25 8 9
15 -33 72 -53 72 -11 0 -33 11 -48 25 l-28 25 23 6 c32 9 28 45 -9 80 -26 23
-29 25 -20 7 17 -33 13 -52 -5 -21 -18 34 -54 56 -54 33 0 -8 -4 -15 -10 -15
-5 0 -10 5 -10 11 0 6 -6 9 -14 6 -19 -7 -36 12 -36 41 0 14 -13 36 -30 52
-16 15 -30 30 -30 32 0 3 14 3 30 0 35 -5 38 5 11 39 -10 13 -16 30 -13 38 3
8 -8 2 -24 -12 -38 -35 -44 -34 -44 9 0 23 -4 33 -11 28 -6 -3 -9 -19 -5 -35
4 -23 2 -29 -11 -29 -13 0 -9 -8 15 -33 l32 -32 -22 -14 c-21 -13 -21 -14 11
-27 46 -19 52 -18 45 12 -5 19 -4 25 5 20 6 -4 11 -17 11 -30 0 -12 11 -37 25
-56 14 -18 23 -36 20 -39 -6 -6 -127 50 -138 64 -4 6 -6 19 -5 30 2 28 -28 94
-47 101 -9 4 -13 13 -10 24 4 12 -3 24 -20 37 l-26 19 26 24 c24 23 26 23 43
6 12 -14 14 -20 5 -23 -16 -6 -17 -35 -1 -51 20 -20 28 -14 28 22 0 39 -28 78
-56 81 -27 1 -44 14 -44 30 0 21 32 55 50 55 9 0 25 6 35 14 19 14 19 15 2 50
-22 47 -22 46 11 46 34 0 78 23 75 38 -2 7 9 12 27 12 17 0 30 5 30 11 0 8 14
9 43 5 38 -6 40 -6 22 7 -18 14 -14 16 45 30 87 20 98 20 105 -2z m-388 -138
c6 -16 -36 -28 -50 -14 -8 8 -7 11 4 11 12 0 12 2 -1 11 -12 7 -8 9 14 7 16
-2 31 -8 33 -15z m-99 -14 c-2 -6 -8 -10 -13 -10 -5 0 -11 4 -13 10 -2 6 4 11
13 11 9 0 15 -5 13 -11z m2 -89 c0 -5 -7 -7 -15 -4 -8 4 -15 8 -15 10 0 2 7 4
15 4 8 0 15 -4 15 -10z m-75 -30 c3 -5 1 -10 -4 -10 -6 0 -11 5 -11 10 0 6 2
10 4 10 3 0 8 -4 11 -10z m70 0 c3 -5 2 -10 -4 -10 -5 0 -13 5 -16 10 -3 6 -2
10 4 10 5 0 13 -4 16 -10z m-21 -147 c2 -16 13 -52 24 -81 15 -38 17 -50 6
-41 -51 42 45 -123 131 -225 13 -16 27 -43 31 -59 3 -17 17 -36 33 -45 15 -8
35 -28 44 -44 9 -15 22 -28 29 -28 7 0 18 -10 23 -22 6 -13 26 -31 46 -40 38
-18 66 -45 55 -55 -11 -11 -56 16 -118 70 -62 53 -215 272 -278 398 -32 63
-36 74 -20 64 15 -9 13 -4 -30 90 -45 98 -48 111 -20 75 l20 -25 -10 28 c-16
44 -11 46 11 5 10 -21 21 -50 23 -65z m113 -29 c-3 -3 -12 -4 -19 -1 -8 3 -5
6 6 6 11 1 17 -2 13 -5z m238 -224 c19 -7 19 -8 2 -15 -14 -6 -15 -10 -6 -21
9 -11 8 -14 -2 -14 -10 -1 -9 -4 4 -14 9 -7 17 -18 17 -23 0 -6 7 -16 15 -23
8 -7 12 -16 9 -21 -3 -5 0 -9 5 -9 6 0 11 -5 11 -10 0 -6 -26 4 -57 22 -64 35
-90 55 -58 44 17 -5 17 -3 -4 14 -13 11 -20 20 -16 20 4 0 1 7 -6 16 -26 31
35 55 86 34z m-120 -20 c3 -6 -1 -7 -9 -4 -18 7 -21 14 -7 14 6 0 13 -4 16
-10z m235 -160 c8 -5 11 -10 5 -10 -5 0 -17 5 -25 10 -8 5 -10 10 -5 10 6 0
17 -5 25 -10z m-17 -39 c33 -13 27 -31 -9 -31 -34 0 -94 26 -94 41 0 13 58 8
103 -10z m87 -11 c26 -14 30 -19 15 -20 -11 0 -33 9 -50 20 -38 25 -11 25 35
0z m75 -1 c7 -7 1 -8 -20 -3 -46 11 -67 26 -25 19 19 -3 39 -10 45 -16z m-38
-45 c-3 -3 -12 -4 -19 -1 -8 3 -5 6 6 6 11 1 17 -2 13 -5z m3 -49 c16 -9 19
-14 9 -15 -8 0 -24 7 -35 15 -24 18 -7 19 26 0z m70 -65 c0 -5 -2 -10 -4 -10
-3 0 -8 5 -11 10 -3 6 -1 10 4 10 6 0 11 -4 11 -10z m-72 -79 c32 -16 67 -31
77 -33 11 -1 22 -5 25 -8 3 -3 34 -18 70 -32 60 -25 212 -49 280 -46 77 5 201
-3 195 -12 -10 -17 -191 -11 -338 10 -140 21 -237 50 -339 101 -54 27 -79 46
-41 32 11 -4 14 -3 9 5 -11 18 -1 15 62 -17z m457 -17 c0 -25 -52 -28 -58 -3
-3 11 0 16 8 13 7 -3 16 0 20 6 10 16 30 6 30 -16z m41 -9 c-11 -8 -14 -15 -7
-15 7 0 9 -5 5 -11 -5 -8 -10 -6 -16 5 -11 20 -2 36 20 36 15 -1 15 -2 -2 -15z
m404 5 c17 -5 -6 -8 -68 -9 -60 -1 -91 3 -87 9 7 12 119 12 155 0z m263 -7
c-13 -2 -33 -2 -45 0 -13 2 -3 4 22 4 25 0 35 -2 23 -4z m-618 -13 c-3 -5 -11
-10 -16 -10 -6 0 -7 5 -4 10 3 6 11 10 16 10 6 0 7 -4 4 -10z m-290 -32 c22
-6 34 -13 28 -15 -14 -5 -123 25 -123 33 0 6 20 2 95 -18z m353 5 c-6 -7 -12
-13 -13 -13 -2 0 -5 6 -8 13 -3 7 3 13 14 13 13 0 15 -3 7 -13z"/>
<path d="M909 1773 c-13 -17 -13 -17 6 -3 11 8 22 16 24 17 2 2 0 3 -6 3 -6 0
-17 -8 -24 -17z"/>
<path d="M705 1753 c-39 -10 -33 -18 10 -15 25 2 45 8 45 13 0 9 -21 10 -55 2z"/>
<path d="M606 1713 c-3 -3 -3 -10 0 -14 7 -12 34 -11 34 0 0 11 -26 22 -34 14z"/>
<path d="M566 1681 c-6 -9 44 -35 52 -27 7 8 -19 36 -34 36 -7 0 -15 -4 -18
-9z"/>
<path d="M926 1584 c-9 -23 -7 -72 3 -78 9 -6 31 37 30 57 0 7 -5 3 -10 -8 -8
-17 -9 -16 -5 8 4 31 -9 46 -18 21z"/>
<path d="M697 1493 c13 -38 44 -60 39 -28 -1 9 -12 22 -24 31 -20 14 -21 14
-15 -3z"/>
<path d="M668 1442 c-22 -9 -11 -28 26 -42 38 -14 44 -6 11 16 -20 13 -23 19
-13 25 15 10 0 10 -24 1z"/>
<path d="M720 1430 c8 -5 20 -10 25 -10 6 0 3 5 -5 10 -8 5 -19 10 -25 10 -5
0 -3 -5 5 -10z"/>
<path d="M644 1394 c15 -14 31 -22 35 -19 7 8 -36 45 -53 45 -6 0 2 -12 18
-26z"/>
<path d="M626 1378 c5 -8 2 -9 -12 -4 -15 6 -14 3 5 -18 14 -15 28 -26 33 -26
12 0 10 34 -4 48 -15 15 -31 16 -22 0z"/>
<path d="M885 1317 c-8 -29 22 -100 37 -91 12 8 1 71 -17 97 -13 19 -14 19
-20 -6z"/>
<path d="M740 1291 c13 -47 30 -71 49 -71 29 0 33 29 9 60 -28 35 -41 38 -33
8 5 -19 3 -18 -10 5 -20 35 -26 34 -15 -2z"/>
<path d="M1020 1083 c0 -4 5 -15 10 -23 8 -13 10 -13 10 2 0 9 -4 20 -10 23
-5 3 -10 3 -10 -2z"/>
<path d="M1120 900 c0 -5 5 -10 11 -10 5 0 7 5 4 10 -3 6 -8 10 -11 10 -2 0
-4 -4 -4 -10z"/>
<path d="M1170 827 c0 -8 10 -22 21 -33 l22 -19 -17 33 c-18 34 -26 40 -26 19z"/>
<path d="M1020 505 c25 -13 50 -24 55 -24 6 0 -10 11 -35 24 -25 13 -49 24
-55 24 -5 0 10 -11 35 -24z"/>
<path d="M2573 1746 c-90 -45 -103 -65 -53 -86 59 -24 60 -33 60 -433 0 -334
-1 -365 -17 -379 -10 -8 -26 -18 -35 -21 -10 -4 -18 -15 -18 -26 0 -18 7 -19
148 -15 81 1 151 3 155 4 5 0 7 7 5 16 -2 9 -25 23 -53 32 -33 11 -54 25 -62
42 -10 19 -13 133 -13 468 0 415 -1 442 -17 441 -10 -1 -55 -20 -100 -43z"/>
<path d="M4256 1782 c-3 -5 -39 -26 -81 -46 -77 -38 -94 -61 -51 -72 13 -3 35
-17 48 -31 l23 -25 3 -346 c2 -191 0 -362 -3 -380 -5 -25 -15 -37 -41 -49 -20
-10 -34 -24 -34 -35 0 -17 12 -18 156 -18 155 0 155 0 152 22 -2 18 -12 24
-48 30 -25 4 -51 15 -57 25 -20 27 -17 137 5 155 51 45 58 43 106 -30 25 -37
71 -99 104 -137 l58 -70 95 3 c65 3 99 8 109 19 13 13 13 16 -4 29 -11 8 -30
14 -43 14 -39 0 -76 25 -136 90 -65 70 -137 172 -137 194 0 20 82 90 136 116
24 12 65 25 91 28 39 6 48 11 48 27 0 19 -9 20 -155 27 -85 3 -158 4 -162 2
-13 -8 -9 -34 5 -38 6 -3 24 -7 40 -10 36 -8 34 -25 -5 -63 -52 -48 -148 -123
-158 -123 -6 0 -11 137 -12 348 -3 347 -3 347 -25 350 -11 2 -24 -1 -27 -6z"/>
<path d="M1722 1701 c-3 -8 3 -19 13 -25 11 -6 34 -25 52 -42 l33 -32 0 -353
c0 -367 -3 -391 -42 -411 -10 -4 -26 -12 -35 -17 -10 -4 -18 -14 -18 -21 0
-10 41 -13 173 -14 96 0 179 2 184 5 22 14 -2 37 -44 44 -24 4 -53 13 -65 21
-22 14 -23 19 -23 189 l0 175 88 0 c101 0 124 -11 142 -68 16 -48 26 -58 42
-44 9 7 14 44 16 119 2 59 4 119 5 133 2 19 -3 26 -20 28 -17 3 -24 -3 -29
-25 -16 -75 -10 -71 -141 -74 l-98 -2 -3 176 -2 177 26 6 c45 11 243 -3 268
-19 12 -8 30 -33 40 -55 18 -41 43 -60 57 -45 4 4 9 48 11 97 l3 89 -314 1
c-264 1 -314 -1 -319 -13z"/>
<path d="M3100 1325 c-105 -35 -172 -94 -151 -134 9 -15 21 -21 47 -21 36 0
52 12 102 79 29 38 69 41 108 8 23 -20 28 -34 32 -85 4 -55 2 -61 -19 -75 -13
-8 -55 -22 -93 -31 -178 -43 -250 -125 -198 -225 38 -75 128 -88 251 -36 l63
26 23 -25 c29 -32 71 -34 124 -6 56 28 75 49 60 66 -8 10 -22 12 -45 8 -62
-11 -64 -4 -64 207 l0 189 -29 32 c-26 30 -34 32 -97 35 -41 2 -87 -3 -114
-12z m124 -291 c12 -5 16 -21 16 -73 0 -71 -4 -83 -35 -98 -66 -34 -145 -21
-165 28 -24 58 19 107 119 134 25 7 47 14 48 14 1 1 8 -2 17 -5z"/>
<path d="M3708 1330 c-93 -28 -141 -104 -119 -188 14 -52 39 -72 161 -134 115
-58 139 -84 120 -132 -13 -35 -53 -49 -118 -43 -60 6 -108 34 -138 79 -31 46
-49 32 -52 -40 l-3 -63 38 -16 c57 -25 245 -25 296 1 57 28 82 70 82 138 0 81
-19 102 -160 173 -74 38 -122 69 -128 82 -14 32 -1 68 28 81 60 27 135 6 181
-52 27 -34 57 -46 68 -28 5 8 -19 120 -28 129 -20 20 -175 29 -228 13z"/>
</g>
</svg>
